<?xml version="1.0" encoding="utf-8"?>
<!-- Generator: Adobe Illustrator 23.0.4, SVG Export Plug-In . SVG Version: 6.00 Build 0)  -->
<svg version="1.1" id="Layer_1" xmlns="http://www.w3.org/2000/svg" xmlns:xlink="http://www.w3.org/1999/xlink" x="0px" y="0px"
	 viewBox="0 0 468 359" style="enable-background:new 0 0 468 359;" xml:space="preserve">
<style type="text/css">
	.st0{fill:#FFFFFF;stroke:#000000;stroke-miterlimit:10;}
	.st1{fill:none;stroke:#000000;stroke-miterlimit:10;}
	.st2{font-family:'AvenirNext-Regular';}
	.st3{font-size:18px;}
	.st4{fill:none;}
	.st5{font-family:'AmericanTypewriter';}
	.st6{font-size:10.494px;}
	.st7{font-family:'AvenirNext-DemiBold';}
</style>
<rect x="14" y="23" class="st0" width="203" height="103"/>
<circle class="st0" cx="342.8" cy="74.5" r="66.5"/>
<line class="st1" x1="342.8" y1="8" x2="342.8" y2="74.5"/>
<line class="st1" x1="409.3" y1="74.5" x2="342.8" y2="74.5"/>
<text transform="matrix(1 0 0 1 371 65.1079)" class="st2 st3">r</text>
<rect x="331" y="35.5" class="st4" width="56" height="46"/>
<text transform="matrix(1 0 0 1 331 49.1079)" class="st2 st3">r</text>
<rect x="19" y="63.5" class="st4" width="56" height="46"/>
<text transform="matrix(1 0 0 1 19 77.1079)" class="st2 st3">h</text>
<rect x="104" y="108.5" class="st4" width="56" height="46"/>
<text transform="matrix(1 0 0 1 104 122.1079)" class="st2 st3">w</text>
<rect x="104" y="57.5" class="st4" width="56" height="46"/>
<text transform="matrix(1 0 0 1 104 71.1079)" class="st2 st3">d</text>
<rect x="287" y="153" class="st4" width="201" height="138"/>
<text transform="matrix(1 0 0 1 287 166.6079)" class="st2 st3">Circumference = 2</text>
<text transform="matrix(1 0 0 1 439.8525 166.6079)" class="st5 st3">π</text>
<text transform="matrix(1 0 0 1 450.3105 166.6079)" class="st2 st3">r</text>
<text transform="matrix(1 0 0 1 287 188.208)" class="st2 st3">Area = </text>
<text transform="matrix(1 0 0 1 346.9746 188.208)" class="st5 st3">π</text>
<text transform="matrix(1 0 0 1 357.4326 188.208)" class="st2 st3">r</text>
<text transform="matrix(1 0 0 1 363.9121 182.2137)" class="st2 st6">2</text>
<text transform="matrix(1 0 0 1 287 209.8076)" class="st2 st3">Height = 2r</text>
<text transform="matrix(1 0 0 1 287 231.4082)" class="st2 st3">Width = 2r</text>
<rect x="15" y="141" class="st4" width="201" height="138"/>
<text transform="matrix(1 0 0 1 15 154.6079)" class="st2 st3">Height = h</text>
<text transform="matrix(1 0 0 1 15 176.208)" class="st2 st3">Width = w</text>
<text transform="matrix(1 0 0 1 15 197.8076)" class="st2 st3">Perimeter = 2(h+w)</text>
<text transform="matrix(1 0 0 1 15 219.4082)" class="st2 st3">Area = hw</text>
<text transform="matrix(1 0 0 1 15 241.0078)" class="st2 st3">d = √(h</text>
<text transform="matrix(1 0 0 1 72.2207 235.0135)" class="st2 st6">2</text>
<text transform="matrix(1 0 0 1 78.3066 241.0078)" class="st2 st3"> + w</text>
<text transform="matrix(1 0 0 1 112.7217 235.0135)" class="st2 st6">2</text>
<text transform="matrix(1 0 0 1 118.8076 241.0078)" class="st2 st3">)</text>
<rect x="420" y="51.5" class="st4" width="56" height="46"/>
<rect x="14" y="267" class="st4" width="442" height="106"/>
<text transform="matrix(1 0 0 1 14 280.6084)" class="st2 st3">Figure 1. A circle is constant in all directions, and any </text>
<text transform="matrix(1 0 0 1 14 302.2084)" class="st2 st3">metric can be transformed into another. A rectangle </text>
<text transform="matrix(1 0 0 1 14 323.8084)" class="st2 st3">has two </text>
<text transform="matrix(1 0 0 1 81.23 323.8084)" class="st7 st3">independent </text>
<text transform="matrix(1 0 0 1 193.31 323.8084)" class="st2 st3">dimensions, and it is impossible </text>
<text transform="matrix(1 0 0 1 14 345.4084)" class="st2 st3">to use one measure to solve for another.</text>
<line class="st1" x1="14" y1="126" x2="217" y2="23"/>
</svg>
