<?xml version="1.0" encoding="utf-8"?>
<!-- Generator: Adobe Illustrator 23.0.2, SVG Export Plug-In . SVG Version: 6.00 Build 0)  -->
<svg version="1.1" id="Layer_1" xmlns="http://www.w3.org/2000/svg" xmlns:xlink="http://www.w3.org/1999/xlink" x="0px" y="0px"
	 viewBox="0 0 468 359" style="enable-background:new 0 0 468 359;" xml:space="preserve">
<style type="text/css">
	.st0{fill:#FFFFFF;stroke:#000000;stroke-miterlimit:10;}
	.st1{fill:none;stroke:#000000;stroke-miterlimit:10;}
	.st2{fill:none;}
	.st3{font-family:'AvenirNext-Regular';}
	.st4{font-size:18px;}
	.st5{font-family:'AmericanTypewriter';}
	.st6{font-family:'AvenirNext-DemiBold';}
	.st7{stroke:#000000;stroke-miterlimit:10;}
</style>
<rect x="14" y="23" class="st0" width="203" height="103"/>
<circle class="st0" cx="342.76" cy="74.5" r="66.5"/>
<line class="st1" x1="342.76" y1="8" x2="342.76" y2="74.5"/>
<line class="st1" x1="409.26" y1="74.5" x2="342.76" y2="74.5"/>
<rect x="371" y="51.5" class="st2" width="56" height="46"/>
<text transform="matrix(1 0 0 1 371 65.1079)" class="st3 st4">r</text>
<rect x="331" y="35.5" class="st2" width="56" height="46"/>
<text transform="matrix(1 0 0 1 331 49.1079)" class="st3 st4">r</text>
<rect x="19" y="63.5" class="st2" width="56" height="46"/>
<text transform="matrix(1 0 0 1 19 77.1079)" class="st3 st4">h</text>
<rect x="104" y="108.5" class="st2" width="56" height="46"/>
<text transform="matrix(1 0 0 1 104 122.1079)" class="st3 st4">w</text>
<rect x="104" y="57.5" class="st2" width="56" height="46"/>
<text transform="matrix(1 0 0 1 104 71.1079)" class="st3 st4">d</text>
<rect x="287" y="153" class="st2" width="201" height="138"/>
<text transform="matrix(1 0 0 1 287 166.6079)" class="st3 st4">Circumference = 2</text>
<text transform="matrix(1 0 0 1 439.8525 166.6079)" class="st5 st4">π</text>
<text transform="matrix(1 0 0 1 450.3105 166.6079)" class="st3 st4">r</text>
<text transform="matrix(1 0 0 1 287 188.208)" class="st3 st4">Area = </text>
<text transform="matrix(1 0 0 1 346.9746 188.208)" class="st5 st4">π</text>
<text transform="matrix(1 0 0 1 357.4326 188.208)" class="st3 st4">r</text>
<text transform="matrix(0.583 0 0 0.583 363.9121 182.2139)" class="st3 st4">2</text>
<text transform="matrix(1 0 0 1 287 209.8076)" class="st3 st4">Height = 2r</text>
<text transform="matrix(1 0 0 1 287 231.4082)" class="st3 st4">Width = 2r</text>
<rect x="15" y="141" class="st2" width="201" height="138"/>
<text transform="matrix(1 0 0 1 15 154.6079)" class="st3 st4">Height = h</text>
<text transform="matrix(1 0 0 1 15 176.208)" class="st3 st4">Width = w</text>
<text transform="matrix(1 0 0 1 15 197.8076)" class="st3 st4">Perimeter = 2(h+w)</text>
<text transform="matrix(1 0 0 1 15 219.4082)" class="st3 st4">Area = hw</text>
<text transform="matrix(1 0 0 1 15 241.0078)" class="st3 st4">d = √(h</text>
<text transform="matrix(0.583 0 0 0.583 72.2207 235.0137)" class="st3 st4">2</text>
<text transform="matrix(1 0 0 1 78.3066 241.0078)" class="st3 st4"> + w</text>
<text transform="matrix(0.583 0 0 0.583 112.7217 235.0137)" class="st3 st4">2</text>
<text transform="matrix(1 0 0 1 118.8076 241.0078)" class="st3 st4">)</text>
<rect x="420" y="51.5" class="st2" width="56" height="46"/>
<text transform="matrix(1 0 0 1 420 65.1079)" class="st3 st4">r</text>
<rect x="14" y="267" class="st2" width="442" height="106"/>
<text transform="matrix(1 0 0 1 14 280.6084)"><tspan x="0" y="0" class="st3 st4">Figure 1. A circle is constant in all directions, and any </tspan><tspan x="0" y="21.6" class="st3 st4">metric can be transformed into another. A rectangle </tspan><tspan x="0" y="43.2" class="st3 st4">has two </tspan><tspan x="67.23" y="43.2" class="st6 st4">independent </tspan><tspan x="179.31" y="43.2" class="st3 st4">dimensions, and it is impossible </tspan><tspan x="0" y="64.8" class="st3 st4">to use one measure to solve for another.</tspan></text>
<line class="st7" x1="14" y1="126" x2="217" y2="23"/>
</svg>
